<svg xmlns="http://www.w3.org/2000/svg" width="55" height="56" viewBox="0 0 55 56"><defs><style>.a{fill:#804ddf;}.b{fill:#fff;}</style></defs><g transform="translate(-0.4)"><ellipse class="a" cx="27.5" cy="28" rx="27.5" ry="28" transform="translate(0.4)"/><g transform="translate(15.49 13.716)"><g transform="translate(0 11.616)"><path class="b" d="M922.269,527.926a6.59,6.59,0,0,1,3.491.9,7.255,7.255,0,0,1,2.256,2.012,2.1,2.1,0,0,0,1.09.81c.363.115.709.283,1.064.422a.148.148,0,0,1,.117.156c.011.492.035.985.048,1.477a.388.388,0,0,0,.084.23c.85,1.177,1.711,2.345,2.54,3.537.119.171.221.354.335.528a1.681,1.681,0,0,1-.591,2.213c-.487.262-1,.456-1.507.671-.256.108-.513.212-.773.309a.152.152,0,0,0-.112.176c.006.259,0,.518,0,.776a.17.17,0,0,1-.13.192q-2.7,1.077-5.4,2.161c-.81.325-1.621.647-2.43.974a.272.272,0,0,1-.224,0q-3.9-1.568-7.813-3.128a.188.188,0,0,1-.141-.216c.01-.253,0-.508.006-.761a.162.162,0,0,0-.126-.182c-.677-.27-1.357-.532-2.017-.842a1.691,1.691,0,0,1-1.049-1.641,1.414,1.414,0,0,1,.244-.8c.9-1.336,1.861-2.629,2.808-3.931a.658.658,0,0,0,.139-.408c0-.443.018-.886.022-1.329a.148.148,0,0,1,.112-.16c.53-.209,1.058-.425,1.588-.636a.478.478,0,0,0,.219-.167A9.322,9.322,0,0,1,918,529.3a7.372,7.372,0,0,1,3.271-1.348A5.806,5.806,0,0,1,922.269,527.926ZM916.244,542a1.091,1.091,0,0,0,.315.168q1.651.676,3.3,1.347c.588.238,1.179.468,1.768.705.092.037.121.024.12-.077,0-.159.013-.318.014-.477.018-2.548.006-5.1,0-7.643a.167.167,0,0,0-.131-.18q-2.333-.933-4.664-1.871c-.584-.234-1.17-.463-1.757-.7a.756.756,0,0,0-.038.306c-.034,1.393-.025,2.786-.029,4.18a.164.164,0,0,0,.124.181,19.46,19.46,0,0,1,1.821.768,1.685,1.685,0,0,1,.978,1.656,1.731,1.731,0,0,1-1.615,1.6A.325.325,0,0,0,916.244,542Zm9.405-7.267c-.944.376-1.887.755-2.833,1.127-.09.035-.088.088-.088.159q0,1.374,0,2.748c0,1.757-.01,3.515.011,5.272,0,.225.007.227.211.146l4.711-1.878c.236-.094.471-.192.733-.3-.225-.028-.417-.042-.606-.077a1.713,1.713,0,0,1-1.36-1.849,1.784,1.784,0,0,1,1.151-1.461c.549-.242,1.107-.463,1.663-.687a.165.165,0,0,0,.129-.18c0-1.269.012-2.539.018-3.808,0-.164-.007-.329-.02-.492-.016-.2-.021-.2-.217-.129-.631.224-1.245.492-1.869.733C927.163,534.1,925.667,534.725,925.649,534.732Zm-.877-.705c-.066-.034-.091-.049-.118-.06-2.037-.843-4.088-1.654-6.136-2.471a.206.206,0,0,0-.169.007c-.665.272-1.332.539-2,.812a1.16,1.16,0,0,0-.384.211l.414.166q2.876,1.156,5.75,2.313a.275.275,0,0,0,.227,0c.362-.149.727-.292,1.089-.438C923.878,534.393,924.308,534.216,924.772,534.027Zm-4.375-3.311c.1.044.184.088.274.126,1.958.828,3.939,1.6,5.909,2.4a.238.238,0,0,0,.2,0c.5-.208,1-.411,1.5-.617a1.076,1.076,0,0,0,.3-.14l-.659-.265c-1.847-.747-3.692-1.5-5.55-2.214a.354.354,0,0,0-.283,0c-.472.193-.947.381-1.419.574A.793.793,0,0,0,920.4,530.717Z" transform="translate(-910.991 -527.918)"/></g><circle class="b" cx="5.198" cy="5.198" r="5.198" transform="translate(6.089)"/><path class="b" d="M23.323,37.974V35.3l4.005,1.684v5.8l-1.891-.918s.784-.749,0-2.464A3.06,3.06,0,0,0,23.323,37.974Z" transform="translate(-17.773 -16.59)"/><path class="b" d="M27.328,37.974V35.3l-3.71,1.684v5.8l1.6-.918s-.784-.749,0-2.464A3.06,3.06,0,0,1,27.328,37.974Z" transform="translate(-10.773 -16.59)"/></g></g></svg>