<svg xmlns="http://www.w3.org/2000/svg" width="55.218" height="55.972" viewBox="0 0 55.218 55.972"><defs><style>.a{fill:#ff1e59;}.b{fill:#fff;}</style></defs><path class="a" d="M590.266,247.289a27.989,27.989,0,1,1-27.588,27.979A27.8,27.8,0,0,1,590.266,247.289Z" transform="translate(-562.678 -247.289)"/><g transform="translate(-394.057 -1045.067)"><path class="b" d="M415.9,1080.486l-5.842,1.256s-.988.095-.658,1.652,4.233,20.357,4.233,20.357.048,1.333,1.624,1.018,4.9-1.042,4.9-1.042l.97-4.435-2.908-3.708,1.236-6.229-2.424-2.5.848-4.12Z" transform="translate(0 -18.896)"/><path class="b" d="M550.541,1080.486l8.671,1.362s.993.005.8,1.586-2.98,20.434-2.98,20.434.072,1.332-1.526,1.16-8.961-1.3-8.961-1.3l2.42-3.829-1.47-4.473,3.4-5.392-1.44-3.186,2.18-3.609Z" transform="translate(-125.677 -18.896)"/><path class="b" d="M531.9,1059.854l-2.4,5.523,3-.15-1.567,5.493a43.066,43.066,0,0,0,3.338-6.879c-2.191.155-3.187.237-3.187.237A21.122,21.122,0,0,0,531.9,1059.854Z" transform="translate(-110.061)"/></g></svg>