<svg xmlns="http://www.w3.org/2000/svg" width="55" height="56" viewBox="0 0 55 56"><defs><style>.a{fill:#3380da;}.b,.c{fill:#fff;}.c{stroke:#fff;stroke-width:0.2px;}</style></defs><ellipse class="a" cx="27.5" cy="28" rx="27.5" ry="28"/><path class="b" d="M14.515,0H2.562A2.562,2.562,0,0,0,0,2.562v22.2a2.562,2.562,0,0,0,2.562,2.562H14.515a2.562,2.562,0,0,0,2.562-2.562V2.562A2.562,2.562,0,0,0,14.515,0ZM8.538,25.615a1.708,1.708,0,1,1,1.708-1.708A1.706,1.706,0,0,1,8.538,25.615Zm5.977-5.763a.642.642,0,0,1-.64.64H3.2a.642.642,0,0,1-.64-.64V3.2a.642.642,0,0,1,.64-.64H13.875a.642.642,0,0,1,.64.64Z" transform="translate(18.733 14.375)"/><path class="a" d="M2.577,14.878V9.155H.5a.5.5,0,0,1-.412-.783L2.577,4.753V4.386h.252L5.694.217a.5.5,0,0,1,.824,0L9.385,4.386h.253v.368l2.488,3.619a.5.5,0,0,1-.412.783H9.637v5.723Z" transform="translate(46.233 20.548) rotate(90)"/><path class="b" d="M1.362,9.25V4.88H.5a.5.5,0,0,1-.392-.81L3.18.19a.5.5,0,0,1,.784,0L7.035,4.07a.5.5,0,0,1-.392.81H5.782V9.25Z" transform="translate(42.401 23.083) rotate(90)"/><g transform="translate(22.797 23.047)"><path class="c" d="M4.972,13.085H4.087A.087.087,0,0,1,4,13V7.444a.087.087,0,0,1,.087-.087h.879a.32.32,0,0,0,.319-.3A.285.285,0,0,0,5.2,6.837a.388.388,0,0,0-.258-.087H3.766a.354.354,0,0,0-.391.347v6.248a.336.336,0,0,0,.369.347H4.965a.292.292,0,0,0,.23-.5A.321.321,0,0,0,4.972,13.085Z" transform="translate(-3.375 -6.75)"/><path class="c" d="M27.978,6.75H26.756a.3.3,0,0,0-.3.4.235.235,0,0,0,.017.041.307.307,0,0,0,.28.169h.885a.087.087,0,0,1,.087.087V13a.087.087,0,0,1-.087.087h-.879a.316.316,0,0,0-.319.3.3.3,0,0,0,.089.226.3.3,0,0,0,.223.082h1.228a.338.338,0,0,0,.369-.356V7.1A.336.336,0,0,0,27.978,6.75Z" transform="translate(-19.321 -6.75)"/><path class="c" d="M7.933,12.375a.3.3,0,0,0-.3.3v2.866a.3.3,0,0,0,.607,0V12.677A.3.3,0,0,0,7.933,12.375Z" transform="translate(-6.316 -10.639)"/><path class="c" d="M26.706,15.846a.3.3,0,0,0,.3-.3V12.677a.3.3,0,0,0-.607,0v2.866A.3.3,0,0,0,26.706,15.846Z" transform="translate(-19.297 -10.639)"/><path class="c" d="M22.276,10.125a.309.309,0,0,0-.3.312V14.67a.3.3,0,1,0,.607,0V10.437A.309.309,0,0,0,22.276,10.125Z" transform="translate(-16.234 -9.084)"/><path class="c" d="M12.362,10.125a.309.309,0,0,0-.3.312V14.67a.3.3,0,1,0,.607,0V10.437A.308.308,0,0,0,12.362,10.125Z" transform="translate(-9.379 -9.084)"/><path class="c" d="M17.319,11.25a.307.307,0,0,0-.3.308v3.547a.3.3,0,1,0,.607,0V11.558A.307.307,0,0,0,17.319,11.25Z" transform="translate(-12.807 -9.861)"/></g></svg>