<svg xmlns="http://www.w3.org/2000/svg" width="55" height="56" viewBox="0 0 55 56"><defs><style>.a{fill:#ffb02f;}.b{fill:#fff;}</style></defs><g transform="translate(0.066)"><ellipse class="a" cx="27.5" cy="28" rx="27.5" ry="28" transform="translate(-0.066)"/><path class="b" d="M23.564,9.634,15.33,2.524a1.124,1.124,0,0,0-1.857.85V7.118C5.959,7.2,0,8.711,0,15.832a9.563,9.563,0,0,0,3.9,7.211.834.834,0,0,0,1.313-.872c-2.121-6.784,1.006-8.585,8.261-8.689v4.113a1.123,1.123,0,0,0,1.857.85l8.234-7.111A1.123,1.123,0,0,0,23.564,9.634Z" transform="translate(14.992 15.307)"/></g></svg>