<svg xmlns="http://www.w3.org/2000/svg" width="52" height="52" viewBox="0 0 52 52"><defs><style>.a{fill:#feb61f;}.b{fill:#fff;}</style></defs><g transform="translate(-861 -329)"><circle class="a" cx="26" cy="26" r="26" transform="translate(861 329)"/><path class="b" d="M-2229-2486a15.894,15.894,0,0,1-11.313-4.686A15.9,15.9,0,0,1-2245-2502a15.9,15.9,0,0,1,4.686-11.314A15.894,15.894,0,0,1-2229-2518a15.9,15.9,0,0,1,11.314,4.687A15.9,15.9,0,0,1-2213-2502a15.9,15.9,0,0,1-4.686,11.314A15.9,15.9,0,0,1-2229-2486Zm-2.253-14.967h-.539a4.342,4.342,0,0,0-4.337,4.337v1.343a1.551,1.551,0,0,0,1.549,1.549h11.361a1.551,1.551,0,0,0,1.549-1.549v-1.343a4.342,4.342,0,0,0-4.337-4.337h-.539a5.615,5.615,0,0,1-2.354.516A5.639,5.639,0,0,1-2231.253-2500.967Zm2.354-9.3a4.136,4.136,0,0,0-4.132,4.131A4.136,4.136,0,0,0-2228.9-2502a4.135,4.135,0,0,0,4.13-4.131A4.135,4.135,0,0,0-2228.9-2510.262Z" transform="translate(3116 2857)"/></g></svg>